<?xml version="1.0" encoding="UTF-8"?>
<svg width="209px" height="14px" viewBox="0 0 209 14" version="1.1" xmlns="http://www.w3.org/2000/svg" xmlns:xlink="http://www.w3.org/1999/xlink">
    <title>438EAECB-AFE6-474E-903D-DF823916C2B5</title>
    <defs>
        <filter id="filter-1">
            <feColorMatrix in="SourceGraphic" type="matrix" values="0 0 0 0 1.000000 0 0 0 0 0.780392 0 0 0 0 0.203922 0 0 0 1.000000 0"></feColorMatrix>
        </filter>
    </defs>
    <g id="Host-a-Fair" stroke="none" stroke-width="1" fill="none" fill-rule="evenodd" stroke-linecap="round" stroke-linejoin="round">
        <g id="Host-a-Fair---Desktop-lg-1024-1279" transform="translate(-60.000000, -477.000000)">
            <g id="shape/break-small" transform="translate(0.000000, 288.000000)" filter="url(#filter-1)">
                <g transform="translate(63.000000, 191.982412)">
                    <path d="M203.691512,8.65453846 C193.507861,8.65453846 193.507861,1.84467826e-15 183.323498,1.84467826e-15 C173.141268,1.84467826e-15 173.141268,8.65453846 162.958328,8.65453846 C152.775387,8.65453846 152.775387,1.84467826e-15 142.592446,1.84467826e-15 C132.408794,1.84467826e-15 132.408794,8.65453846 122.225854,8.65453846 C112.04078,8.65453846 112.04078,1.84467826e-15 101.855707,1.84467826e-15 C91.6706341,1.84467826e-15 91.6706341,8.65453846 81.4862718,8.65453846 C71.3011986,8.65453846 71.3011986,1.84467826e-15 61.1154146,1.84467826e-15 C50.9303415,1.84467826e-15 50.9303415,8.65453846 40.7459791,8.65453846 C30.5594843,8.65453846 30.5594843,1.84467826e-15 20.3729895,1.84467826e-15 C10.1864948,1.84467826e-15 10.1864948,8.65453846 -8.08087627e-14,8.65453846" id="Stroke-1" stroke="#FF4D2C" stroke-width="4.41"></path>
                </g>
            </g>
        </g>
    </g>
</svg>